PathFileType	4	(X/Y/Z)	C:/Users/beibeiliu/ov580/test_trc/User1\sequence.27_training_dense_left.trc
DataRate	CameraRate	NumFrames	NumMarkers	Units	OrigDataRate	OrigDataStartFrame	OrigNumFrames
120	120	19	19	mm	120	195	259
Frame#	Time	ThumbCMC			ThumbMCP			ThumbIP			ThumbTip			IndexMCP			IndexPIP			IndexTip			MiddleMCP			MiddlePIP			MiddleTip			RingMCP			RingPIP			RingTip			PinkyMCP			PinkyPIP			PinkyTip			BackHand1			BackHand2			BackHand3	
		X0	Y0	Z0	X1	Y1	Z1	X2	Y2	Z2	X3	Y3	Z3	X4	Y4	Z4	X5	Y5	Z5	X6	Y6	Z6	X7	Y7	Z7	X8	Y8	Z8	X9	Y9	Z9	X10	Y10	Z10	X11	Y11	Z11	X12	Y12	Z12	X13	Y13	Z13	X14	Y14	Z14	X15	Y15	Z15	X16	Y16	Z16	X17	Y17	Z17	X18	Y18	Z18	
194	1.61667	-189.962	17.1482	40.5963	-183.307	39.061	17.0116	-176.516	47.5509	-5.62782	-168.231	55.8562	-29.4421	-184.456	-26.1094	-33.3271	-175.751	-27.9951	-63.0061	-162.409	-26.5295	-82.909	-172.589	-51.3942	-29.6938	-162.081	-59.1233	-60.2838	-144.555	-59.678	-84.4467	-145.734	-58.9287	-17.9947	-129.57	-58.0745	-45.3041	-108.457	-42.5276	-65.5563	-120.905	-53.6103	3.59915	-103.884	-35.7227	-12.9413	-95.7945	-9.52173	-22.087	-163.996	-52.3377	39.0213	-169.297	-43.0001	71.6251	-190.736	-24.4816	46.1165	
195	1.625	-189.025	14.174	42.6985	-180.941	33.6099	17.8979	-176.449	43.2041	-10.1672	-165.951	53.6347	-28.5863	-186.352	-30.3861	-31.6064	-175.817	-35.6523	-63.5517	-160.232	-33.1847	-84.6841	-172.855	-58.246	-30.7338	-163.305	-65.8115	-56.677	-145.059	-62.0683	-89.1166	-144.452	-64.7706	-18.6997	-128.13	-62.7082	-46.5929	-108.512	-46.2831	-61.6083	-120.517	-56.6202	-0.278472	-106.739	-41.619	-14.4019	-101.398	-8.9076	-17.3925	-165.247	-57.065	36.5287	-169.877	-47.9464	67.2163	-190.641	-30.6389	40.5084	
196	1.63333	-187.588	7.01964	40.1794	-180.784	28.7296	16.9689	-174.898	39.4415	-9.61657	-162.275	45.9141	-36.6423	-187.727	-35.7818	-33.3785	-177.339	-41.8017	-59.7606	-158.585	-40.2	-85.0146	-173.392	-63.0876	-28.2592	-161.866	-71.3633	-61.3341	-146.231	-64.9998	-91.5198	-146.361	-70.0475	-22.0564	-129.722	-61.9326	-51.5031	-109.016	-43.2613	-60.2673	-122.076	-61.3232	-1.30454	-105.961	-42.5353	-15.3297	-103.029	-11.4256	-11.1714	-163.223	-62.6429	36.3975	-168.905	-54.6845	69.3668	-191.781	-31.6809	42.9631	
197	1.64167	-190.812	4.5668	37.6892	-180.611	23.8982	14.7932	-172.828	30.2508	-14.6435	-159.47	38.0515	-37.2316	-188.424	-42.8682	-36.3736	-176.385	-48.1406	-64.796	-160.289	-43.7021	-85.1663	-172.667	-71.6059	-28.2575	-167.134	-75.9173	-59.8781	-145.289	-71.3624	-90.8859	-147.645	-75.2737	-22.5245	-130.12	-67.6913	-49.9417	-107.09	-46.5952	-54.0066	-121.73	-67.4533	-2.71734	-106.217	-46.5534	-14.6961	-107.425	-16.6489	-10.0189	-164.103	-66.2609	34.39	-166.627	-56.2457	70.5109	-189.156	-39.8307	39.8455	
198	1.65	-190.909	0.871159	39.1385	-180.162	16.675	11.4717	-173.392	25.5738	-13.4169	-157.358	27.3242	-38.9799	-187.611	-48.861	-33.6886	-179.853	-52.2962	-65.1394	-157.068	-49.2624	-85.6531	-172.98	-79.9873	-31.7575	-162.714	-86.06	-62.5473	-144.528	-77.8648	-89.8977	-146.214	-83.3525	-20.6614	-125.371	-75.1263	-49.2058	-110.032	-50.3609	-53.0612	-121.582	-75.707	-0.755994	-105.343	-53.7585	-15.8335	-109.501	-23.5004	-7.29041	-163.081	-73.9153	32.6104	-167.01	-61.2877	67.1956	-190.115	-44.2456	42.4104	
199	1.65833	-187.706	-9.13107	35.1356	-180.832	9.56031	7.11181	-172.774	17.6515	-21.0801	-155.945	18.5689	-38.6303	-186.291	-58.8147	-36.6237	-175.962	-60.1242	-64.393	-154.797	-50.21	-85.5866	-175.986	-84.7529	-31.4849	-165.174	-92.1948	-59.1259	-143.865	-87.3338	-85.9465	-148.808	-88.2627	-22.3428	-129.688	-80.9881	-49.277	-108.961	-54.7097	-50.602	-117.849	-81.034	-5.38005	-107.996	-60.1665	-17.1163	-111.111	-30.6635	-4.64566	-164.93	-75.6388	31.6311	-166.686	-67.439	67.3306	-193.181	-48.8424	37.2594	
200	1.66667	-189.03	-13.579	33.8595	-181.653	4.51996	5.55441	-173.476	12.1106	-21.5799	-153.99	6.86916	-40.1133	-185.476	-66.2174	-37.1563	-175.397	-65.7489	-63.9754	-151.44	-50.1216	-82.4585	-172.97	-91.3766	-25.7224	-166.874	-97.969	-62.9698	-142.459	-92.8677	-85.3133	-150.834	-92.6189	-20.1257	-130.572	-89.6661	-48.4563	-112.102	-60.2722	-52.0656	-121.824	-85.8768	-3.15443	-107.783	-63.8001	-16.845	-113.383	-32.8342	-3.22299	-162.001	-81.4509	36.5827	-164.271	-72.6585	69.0808	-188.836	-56.173	43.5267	
201	1.675	-189.432	-17.439	33.5168	-182.202	3.49012	6.77692	-172.711	4.25984	-19.4106	-151.738	-0.00451558	-40.4737	-183.428	-71.2539	-33.0166	-167.854	-70.6185	-64.5119	-147.612	-52.2515	-74.3427	-175.807	-95.7888	-27.2461	-165.08	-103.937	-61.2895	-144.586	-99.4504	-85.5905	-146.721	-102.072	-20.9148	-126.746	-93.1469	-48.4466	-109.043	-64.7277	-50.1471	-119.03	-90.7772	-3.3069	-105.377	-64.4989	-15.9546	-113.857	-38.9502	-2.06588	-161.739	-88.0113	34.0333	-165.907	-74.317	70.2834	-189.993	-60.2197	44.3801	
202	1.68333	-188.219	-19.9396	37.9681	-178.177	-8.65497	4.27301	-168.601	-5.24496	-21.4553	-146.928	-8.25638	-41.9135	-185.531	-72.6402	-31.6785	-168.542	-72.6538	-63.9226	-144.184	-51.9055	-68.0576	-176.153	-98.066	-25.2427	-168.117	-107.682	-61.0216	-144.97	-105.411	-83.1608	-151.055	-102.078	-20.8943	-133.608	-97.5026	-47.9935	-113.594	-71.171	-51.0411	-119.893	-92.5716	-5.11676	-107.581	-72.278	-16.4071	-113.411	-42.1409	-1.89903	-162.993	-89.3196	33.9802	-167.733	-79.3668	68.9343	-188.598	-64.4409	40.3651	
203	1.69167	-188.789	-23.3543	34.529	-177.162	-8.18521	1.46047	-165.643	-8.05117	-24.6259	-144.253	-17.9103	-38.5536	-183.263	-77.2823	-31.4425	-169.437	-75.1907	-61.3828	-143.487	-50.5504	-64.0945	-175.027	-100.867	-24.1538	-169.054	-109.842	-58.1445	-149.675	-105.127	-84.8969	-147.655	-106.286	-18.0931	-130.396	-96.6852	-49.2618	-109.464	-71.874	-50.3288	-123.111	-96.5214	-0.606657	-109.015	-72.6518	-15.7692	-115.351	-47.5708	-1.89572	-160.634	-93.9409	35.6777	-163.697	-84.2132	72.2488	-190.648	-64.5981	40.9457	
204	1.7	-187.055	-28.5111	36.1007	-177.166	-11.9489	2.37571	-163.448	-13.7922	-19.3695	-139.161	-25.7441	-38.0155	-184.998	-78.1637	-36.0592	-162.87	-75.7791	-59.7997	-143.008	-46.8064	-59.6352	-173.524	-105.412	-23.8527	-168.262	-113.588	-54.51	-146.591	-110.046	-82.489	-150.252	-106.685	-18.6744	-130.631	-99.5294	-48.7312	-112.366	-77.9828	-51.5172	-123.356	-99.6836	-0.349457	-109.209	-76.8215	-15.9197	-113.139	-49.075	-0.000824006	-163.873	-93.4139	37.1897	-166.508	-83.0275	70.3124	-190.488	-68.5985	44.0931	
205	1.70833	-189.495	-26.8311	34.2284	-176.249	-12.5227	4.51762	-160.73	-19.7814	-23.4956	-136.824	-28.737	-37.1066	-184.386	-79.3881	-31.1966	-166.455	-73.9462	-61.5825	-143.773	-48.3492	-57.9991	-176.546	-105.206	-24.8042	-166.745	-116.036	-55.0545	-146.73	-110.542	-84.6601	-147.616	-111.834	-19.9482	-129.561	-103.548	-48.2876	-115.806	-79.2496	-54.2332	-123.901	-100.653	-4.79716	-109.772	-79.0814	-15.9712	-117.256	-51.6552	-3.26557	-165.086	-96.4346	37.9844	-162.982	-87.0127	72.2617	-189.202	-71.071	44.6941	
206	1.71667	-188.085	-29.3979	33.8133	-174.428	-15.3185	3.19052	-158.583	-22.2549	-21.267	-132.818	-35.3278	-35.8558	-182.671	-82.379	-31.2793	-164.87	-74.2635	-61.3824	-145.247	-47.5794	-58.1562	-176.892	-106.069	-26.5775	-166.006	-116.433	-55.9778	-149.708	-109.223	-84.0676	-149.201	-111.273	-17.0481	-133.511	-104.276	-48.3903	-112.317	-78.5726	-52.3323	-125.534	-102.117	0.4691	-112.049	-80.2064	-16.6845	-118.754	-50.5163	-1.12473	-165.882	-96.6961	37.6716	-164.768	-87.2803	74.2008	-191.141	-70.2363	41.4746	
207	1.725	-188.539	-30.3702	36.3122	-174.108	-15.373	3.14839	-158.914	-22.4209	-23.647	-133.463	-33.387	-36.1498	-184.893	-82.941	-33.3485	-168.335	-77.6957	-59.945	-147.365	-51.9501	-59.4119	-176.268	-107.884	-26.2681	-168.598	-116.123	-55.8204	-148.705	-110.457	-85.1666	-153.258	-108.87	-20.0332	-133.361	-106.749	-46.3442	-117.546	-81.1541	-54.4283	-123.629	-104.281	-1.66652	-110.324	-83.5405	-19.1895	-112.367	-53.1684	-3.97517	-165.383	-96.0691	38.7742	-167.305	-88.8402	71.1537	-190.848	-70.7408	45.912	
208	1.73333	-188.78	-29.7277	37.2821	-174.188	-19.2118	3.22181	-159.574	-20.6429	-24.269	-132.726	-35.1403	-37.1557	-184.838	-84.8447	-31.9308	-170.957	-79.5561	-62.2869	-148.411	-55.9448	-63.9429	-176.921	-108.097	-23.986	-169.762	-115.057	-57.2282	-147.371	-109.97	-86.9471	-151.45	-112.655	-17.2195	-137.488	-103.669	-50.3229	-117.23	-80.752	-57.6858	-129.949	-103.901	-3.64798	-114.613	-84.4678	-21.7228	-112.605	-58.1504	-16.3414	-164.844	-95.7293	40.2694	-165.911	-88.4035	72.3659	-190.171	-73.268	45.1542	
209	1.74167	-189.281	-30.1321	36.0437	-174.627	-15.9957	5.225	-159.772	-21.0923	-25.5877	-137.386	-30.8444	-38.4783	-189.504	-82.9218	-29.6551	-172.771	-83.0593	-60.1989	-148.202	-60.3613	-67.6053	-177.691	-109.567	-24.1321	-170.44	-117.183	-58.5568	-153.788	-108.462	-87.5601	-156.81	-111.304	-17.5299	-142.874	-109.014	-49.5241	-121.16	-84.9476	-61.3043	-129.826	-106.915	-2.3508	-115.243	-92.5289	-24.145	-112.382	-59.5579	-22.6576	-166.529	-97.985	39.377	-170.533	-88.047	67.2228	-192.986	-73.6663	46.2297	
210	1.75	-191.778	-31.4173	31.7385	-173.941	-16.2323	3.61506	-160.896	-19.0223	-23.2946	-138.474	-25.8863	-42.9656	-194.35	-83.2535	-35.0297	-178.31	-83.3381	-64.6666	-153.083	-67.2012	-72.7547	-181.515	-109.383	-27.4341	-175.626	-115.396	-56.4733	-151.895	-108.804	-88.1091	-156.838	-114.114	-18.4134	-147.272	-111.676	-48.3964	-126.656	-92.0415	-63.8053	-132.412	-110.243	-0.953457	-119.065	-97.8061	-26.3794	-115.225	-67.921	-33.8805	-171.06	-96.7202	40.2299	-169.569	-86.5711	72.0196	-195.878	-72.8169	40.7965	
211	1.75833	-190.729	-31.5972	32.9	-173.282	-18.5199	0.831629	-160.123	-16.1541	-25.7637	-140.559	-21.7858	-40.5523	-197.454	-82.9585	-36.095	-181.873	-86.3461	-62.3919	-154.691	-69.8427	-77.7156	-183.668	-109.568	-25.748	-178.374	-115.748	-56.9214	-154.063	-108.572	-87.3497	-161.025	-117.061	-20.6778	-149.296	-115.641	-51.2792	-128.859	-96.4453	-67.1457	-135.055	-111.979	-4.08768	-123.233	-104.286	-24.7985	-116.368	-79.8531	-40.9326	-170.829	-100.425	37.5206	-171.857	-89.4648	68.0871	-200.836	-71.5716	40.7787	
212	1.76667	-193.721	-26.7087	30.4008	-174.201	-11.2576	2.36329	-158.651	-16.5538	-25.2637	-138.222	-23.0717	-39.9534	-198.288	-81.0845	-35.5926	-186.185	-84.7023	-63.4728	-160.536	-70.1759	-79.4243	-189.671	-103.531	-26.5029	-178.663	-115.142	-58.6878	-159.124	-104.118	-87.0937	-166.786	-114.879	-18.0713	-154.214	-115.546	-51.567	-135.868	-102.34	-66.0659	-139.546	-111.277	1.22394	-125.16	-109.295	-24.187	-112.864	-90.3704	-41.2554	-172.309	-98.4985	38.753	-175.283	-88.5697	71.0005	-196.839	-72.2803	40.4485	
